<svg xmlns="http://www.w3.org/2000/svg" width="0" height="0" style="position:absolute" aria-hidden="true">
  <!--
    Boop — a ház saját kabalafigurája, agyag anyagban (visszaöltöztetés, mezo-ju4j6.14).

    EREDET: a figura SAJÁT rajz, a stíluskönyv §6.1 agyag-receptje szerint (viewBox 0 0 100 100,
    objektumonként saját 3-stop radiális gradiens, EGY fehér csúcsfény bal felül, körvonal és
    drop-shadow nélkül). A `bible-strong-avatar-lab` (AGPL-3.0) ötletadóként szerepelt a tervben;
    innen sem kód, sem exportált ábra nem került át, így licenc-kérdés sem keletkezik.

    VÁLTOZATOK: Edzés kék, Fuel zsálya, Nap narancssárga, Boop levendula, Én rózsa.
    MOZDULAT-FOGÓK: boop-eye = pislogás, boop-pupil = tekintet,
    boop-brow = szemöldök, boop-body = lélegzet; CSS, reduced-motion védelemmel.
  -->
  <defs>
    <radialGradient id="bg-boop-train-body" cx="36%" cy="30%" r="86%">
      <stop offset="0" stop-color="#C4E1FA"/><stop offset="0.5" stop-color="#6BA6D6"/><stop offset="1" stop-color="#356FA0"/>
    </radialGradient>
    <linearGradient id="bg-boop-train-foot" x1="0" y1="0" x2="0" y2="1">
      <stop offset="0" stop-color="#6BA6D6"/><stop offset="1" stop-color="#356FA0"/>
    </linearGradient>
    <radialGradient id="bg-boop-train-ear" cx="38%" cy="28%" r="88%">
      <stop offset="0" stop-color="#C4E1FA"/><stop offset="0.55" stop-color="#6BA6D6"/><stop offset="1" stop-color="#356FA0"/>
    </radialGradient>
    <radialGradient id="bg-boop-fuel-body" cx="36%" cy="30%" r="86%">
      <stop offset="0" stop-color="#B9D3A8"/><stop offset="0.5" stop-color="#7FA06C"/><stop offset="1" stop-color="#4E6B42"/>
    </radialGradient>
    <linearGradient id="bg-boop-fuel-foot" x1="0" y1="0" x2="0" y2="1">
      <stop offset="0" stop-color="#7FA06C"/><stop offset="1" stop-color="#4E6B42"/>
    </linearGradient>
    <radialGradient id="bg-boop-fuel-ear" cx="38%" cy="28%" r="88%">
      <stop offset="0" stop-color="#B9D3A8"/><stop offset="0.55" stop-color="#7FA06C"/><stop offset="1" stop-color="#4E6B42"/>
    </radialGradient>
    <radialGradient id="bg-boop-nap-body" cx="36%" cy="30%" r="86%">
      <stop offset="0" stop-color="#FFC3A8"/><stop offset="0.5" stop-color="#FF7A55"/><stop offset="1" stop-color="#D8481F"/>
    </radialGradient>
    <linearGradient id="bg-boop-nap-foot" x1="0" y1="0" x2="0" y2="1">
      <stop offset="0" stop-color="#FF7A55"/><stop offset="1" stop-color="#D8481F"/>
    </linearGradient>
    <radialGradient id="bg-boop-nap-ear" cx="38%" cy="28%" r="88%">
      <stop offset="0" stop-color="#FFC3A8"/><stop offset="0.55" stop-color="#FF7A55"/><stop offset="1" stop-color="#D8481F"/>
    </radialGradient>
    <radialGradient id="bg-boop-mezo-body" cx="36%" cy="30%" r="86%">
      <stop offset="0" stop-color="#DDD3F5"/><stop offset="0.5" stop-color="#9B8FC4"/><stop offset="1" stop-color="#5D4FA0"/>
    </radialGradient>
    <linearGradient id="bg-boop-mezo-foot" x1="0" y1="0" x2="0" y2="1">
      <stop offset="0" stop-color="#9B8FC4"/><stop offset="1" stop-color="#5D4FA0"/>
    </linearGradient>
    <radialGradient id="bg-boop-mezo-ear" cx="38%" cy="28%" r="88%">
      <stop offset="0" stop-color="#DDD3F5"/><stop offset="0.55" stop-color="#9B8FC4"/><stop offset="1" stop-color="#5D4FA0"/>
    </radialGradient>
    <radialGradient id="bg-boop-en-body" cx="36%" cy="30%" r="86%">
      <stop offset="0" stop-color="#F8CBDD"/><stop offset="0.5" stop-color="#E27A8B"/><stop offset="1" stop-color="#8E3F6F"/>
    </radialGradient>
    <linearGradient id="bg-boop-en-foot" x1="0" y1="0" x2="0" y2="1">
      <stop offset="0" stop-color="#E27A8B"/><stop offset="1" stop-color="#8E3F6F"/>
    </linearGradient>
    <radialGradient id="bg-boop-en-ear" cx="38%" cy="28%" r="88%">
      <stop offset="0" stop-color="#F8CBDD"/><stop offset="0.55" stop-color="#E27A8B"/><stop offset="1" stop-color="#8E3F6F"/>
    </radialGradient>
    <radialGradient id="bg-boop-gold-body" cx="36%" cy="30%" r="86%">
      <stop offset="0" stop-color="#FFE9A8"/><stop offset="0.5" stop-color="#F0B429"/><stop offset="1" stop-color="#B57E14"/>
    </radialGradient>
    <linearGradient id="bg-boop-gold-foot" x1="0" y1="0" x2="0" y2="1">
      <stop offset="0" stop-color="#F0B429"/><stop offset="1" stop-color="#B57E14"/>
    </linearGradient>
    <radialGradient id="bg-boop-gold-ear" cx="38%" cy="28%" r="88%">
      <stop offset="0" stop-color="#FFE9A8"/><stop offset="0.55" stop-color="#F0B429"/><stop offset="1" stop-color="#B57E14"/>
    </radialGradient>
    <radialGradient id="bg-boop-slate-body" cx="36%" cy="30%" r="86%">
      <stop offset="0" stop-color="#D9D4E2"/><stop offset="0.5" stop-color="#8E86A3"/><stop offset="1" stop-color="#565073"/>
    </radialGradient>
    <linearGradient id="bg-boop-slate-foot" x1="0" y1="0" x2="0" y2="1">
      <stop offset="0" stop-color="#8E86A3"/><stop offset="1" stop-color="#565073"/>
    </linearGradient>
    <radialGradient id="bg-boop-slate-ear" cx="38%" cy="28%" r="88%">
      <stop offset="0" stop-color="#D9D4E2"/><stop offset="0.55" stop-color="#8E86A3"/><stop offset="1" stop-color="#565073"/>
    </radialGradient>
  </defs>
  <symbol id="boop-train" viewBox="0 0 100 100">
    <title>Boop — Edzés · kék</title>
    <!-- talaj-árnyék: a figura ÜL valamin, nem lebeg (agyag-recept: nincs drop-shadow szűrő) -->
    <ellipse cx="50" cy="90" rx="25" ry="4.6" fill="#356FA0" opacity="0.16"/>
    <!-- fülek: a FEJ felső harmadán, kifelé döntve (owner 2026-09-18: lejjebb kézre hasonlítottak) -->
    <ellipse class="boop-ear" cx="22" cy="28" rx="7.5" ry="10" fill="url(#bg-boop-train-ear)" transform="rotate(-24 22 28)"/>
    <ellipse class="boop-ear" cx="78" cy="28" rx="7.5" ry="10" fill="url(#bg-boop-train-ear)" transform="rotate(24 78 28)"/>
    <!-- lábak -->
    <ellipse cx="37" cy="85.5" rx="9" ry="5" fill="url(#bg-boop-train-foot)"/>
    <ellipse cx="63" cy="85.5" rx="9" ry="5" fill="url(#bg-boop-train-foot)"/>
    <!-- törzs -->
    <g class="boop-body">
      <ellipse cx="50" cy="52" rx="32" ry="33.5" fill="url(#bg-boop-train-body)"/>
      <!-- egyetlen fehér csúcsfény, bal felül, ~-22 fokkal döntve -->
      <ellipse cx="37.5" cy="33" rx="10" ry="6.2" fill="rgba(255,255,255,0.55)" transform="rotate(-22 37.5 33)"/>
      <!-- szemek: fehér mandula + pupilla + csillanás; a szemcsoport együtt pislog -->
      <!-- szemöldök: apró ív a szem fölött, a mozdulat (felhúzás) fogója a `.boop-brow` -->
      <path class="boop-brow boop-brow-l" d="M33.6 39.6 Q38.4 36.4 43.2 38.8" fill="none" stroke="#356FA0" stroke-opacity="0.65" stroke-width="2.2" stroke-linecap="round"/>
      <path class="boop-brow boop-brow-r" d="M56.8 38.8 Q61.6 36.4 66.4 39.6" fill="none" stroke="#356FA0" stroke-opacity="0.65" stroke-width="2.2" stroke-linecap="round"/>
      <g class="boop-eye boop-eye-l">
        <ellipse cx="38.4" cy="50" rx="6.6" ry="8.4" fill="#FFF9F0"/>
        <!-- A pupilla + csillanás együtt nézelődik; a külső szemcsoport pislog. -->
        <g class="boop-pupil">
          <circle cx="38.4" cy="51.4" r="3.4" fill="#3A2A22"/>
          <circle cx="37.0" cy="49.3" r="1.25" fill="#FFFFFF" opacity="0.9"/>
        </g>
      </g>
      <g class="boop-eye boop-eye-r">
        <ellipse cx="61.6" cy="50" rx="6.6" ry="8.4" fill="#FFF9F0"/>
        <g class="boop-pupil">
          <circle cx="61.6" cy="51.4" r="3.4" fill="#3A2A22"/>
          <circle cx="60.2" cy="49.3" r="1.25" fill="#FFFFFF" opacity="0.9"/>
        </g>
      </g>
    </g>
  </symbol>
  <symbol id="boop-fuel" viewBox="0 0 100 100">
    <title>Boop — Fuel · zsálya</title>
    <!-- talaj-árnyék: a figura ÜL valamin, nem lebeg (agyag-recept: nincs drop-shadow szűrő) -->
    <ellipse cx="50" cy="90" rx="25" ry="4.6" fill="#4E6B42" opacity="0.16"/>
    <!-- fülek: a FEJ felső harmadán, kifelé döntve (owner 2026-09-18: lejjebb kézre hasonlítottak) -->
    <ellipse class="boop-ear" cx="22" cy="28" rx="7.5" ry="10" fill="url(#bg-boop-fuel-ear)" transform="rotate(-24 22 28)"/>
    <ellipse class="boop-ear" cx="78" cy="28" rx="7.5" ry="10" fill="url(#bg-boop-fuel-ear)" transform="rotate(24 78 28)"/>
    <!-- lábak -->
    <ellipse cx="37" cy="85.5" rx="9" ry="5" fill="url(#bg-boop-fuel-foot)"/>
    <ellipse cx="63" cy="85.5" rx="9" ry="5" fill="url(#bg-boop-fuel-foot)"/>
    <!-- törzs -->
    <g class="boop-body">
      <ellipse cx="50" cy="52" rx="32" ry="33.5" fill="url(#bg-boop-fuel-body)"/>
      <!-- egyetlen fehér csúcsfény, bal felül, ~-22 fokkal döntve -->
      <ellipse cx="37.5" cy="33" rx="10" ry="6.2" fill="rgba(255,255,255,0.55)" transform="rotate(-22 37.5 33)"/>
      <!-- szemek: fehér mandula + pupilla + csillanás; a szemcsoport együtt pislog -->
      <!-- szemöldök: apró ív a szem fölött, a mozdulat (felhúzás) fogója a `.boop-brow` -->
      <path class="boop-brow boop-brow-l" d="M33.6 39.6 Q38.4 36.4 43.2 38.8" fill="none" stroke="#4E6B42" stroke-opacity="0.65" stroke-width="2.2" stroke-linecap="round"/>
      <path class="boop-brow boop-brow-r" d="M56.8 38.8 Q61.6 36.4 66.4 39.6" fill="none" stroke="#4E6B42" stroke-opacity="0.65" stroke-width="2.2" stroke-linecap="round"/>
      <g class="boop-eye boop-eye-l">
        <ellipse cx="38.4" cy="50" rx="6.6" ry="8.4" fill="#FFF9F0"/>
        <!-- A pupilla + csillanás együtt nézelődik; a külső szemcsoport pislog. -->
        <g class="boop-pupil">
          <circle cx="38.4" cy="51.4" r="3.4" fill="#3A2A22"/>
          <circle cx="37.0" cy="49.3" r="1.25" fill="#FFFFFF" opacity="0.9"/>
        </g>
      </g>
      <g class="boop-eye boop-eye-r">
        <ellipse cx="61.6" cy="50" rx="6.6" ry="8.4" fill="#FFF9F0"/>
        <g class="boop-pupil">
          <circle cx="61.6" cy="51.4" r="3.4" fill="#3A2A22"/>
          <circle cx="60.2" cy="49.3" r="1.25" fill="#FFFFFF" opacity="0.9"/>
        </g>
      </g>
    </g>
  </symbol>
  <symbol id="boop-nap" viewBox="0 0 100 100">
    <title>Boop — Nap · narancssárga</title>
    <!-- talaj-árnyék: a figura ÜL valamin, nem lebeg (agyag-recept: nincs drop-shadow szűrő) -->
    <ellipse cx="50" cy="90" rx="25" ry="4.6" fill="#D8481F" opacity="0.16"/>
    <!-- fülek: a FEJ felső harmadán, kifelé döntve (owner 2026-09-18: lejjebb kézre hasonlítottak) -->
    <ellipse class="boop-ear" cx="22" cy="28" rx="7.5" ry="10" fill="url(#bg-boop-nap-ear)" transform="rotate(-24 22 28)"/>
    <ellipse class="boop-ear" cx="78" cy="28" rx="7.5" ry="10" fill="url(#bg-boop-nap-ear)" transform="rotate(24 78 28)"/>
    <!-- lábak -->
    <ellipse cx="37" cy="85.5" rx="9" ry="5" fill="url(#bg-boop-nap-foot)"/>
    <ellipse cx="63" cy="85.5" rx="9" ry="5" fill="url(#bg-boop-nap-foot)"/>
    <!-- törzs -->
    <g class="boop-body">
      <ellipse cx="50" cy="52" rx="32" ry="33.5" fill="url(#bg-boop-nap-body)"/>
      <!-- egyetlen fehér csúcsfény, bal felül, ~-22 fokkal döntve -->
      <ellipse cx="37.5" cy="33" rx="10" ry="6.2" fill="rgba(255,255,255,0.55)" transform="rotate(-22 37.5 33)"/>
      <!-- szemek: fehér mandula + pupilla + csillanás; a szemcsoport együtt pislog -->
      <!-- szemöldök: apró ív a szem fölött, a mozdulat (felhúzás) fogója a `.boop-brow` -->
      <path class="boop-brow boop-brow-l" d="M33.6 39.6 Q38.4 36.4 43.2 38.8" fill="none" stroke="#D8481F" stroke-opacity="0.65" stroke-width="2.2" stroke-linecap="round"/>
      <path class="boop-brow boop-brow-r" d="M56.8 38.8 Q61.6 36.4 66.4 39.6" fill="none" stroke="#D8481F" stroke-opacity="0.65" stroke-width="2.2" stroke-linecap="round"/>
      <g class="boop-eye boop-eye-l">
        <ellipse cx="38.4" cy="50" rx="6.6" ry="8.4" fill="#FFF9F0"/>
        <!-- A pupilla + csillanás együtt nézelődik; a külső szemcsoport pislog. -->
        <g class="boop-pupil">
          <circle cx="38.4" cy="51.4" r="3.4" fill="#3A2A22"/>
          <circle cx="37.0" cy="49.3" r="1.25" fill="#FFFFFF" opacity="0.9"/>
        </g>
      </g>
      <g class="boop-eye boop-eye-r">
        <ellipse cx="61.6" cy="50" rx="6.6" ry="8.4" fill="#FFF9F0"/>
        <g class="boop-pupil">
          <circle cx="61.6" cy="51.4" r="3.4" fill="#3A2A22"/>
          <circle cx="60.2" cy="49.3" r="1.25" fill="#FFFFFF" opacity="0.9"/>
        </g>
      </g>
    </g>
  </symbol>
  <symbol id="boop-mezo" viewBox="0 0 100 100">
    <title>Boop — Boop · levendula</title>
    <!-- talaj-árnyék: a figura ÜL valamin, nem lebeg (agyag-recept: nincs drop-shadow szűrő) -->
    <ellipse cx="50" cy="90" rx="25" ry="4.6" fill="#5D4FA0" opacity="0.16"/>
    <!-- fülek: a FEJ felső harmadán, kifelé döntve (owner 2026-09-18: lejjebb kézre hasonlítottak) -->
    <ellipse class="boop-ear" cx="22" cy="28" rx="7.5" ry="10" fill="url(#bg-boop-mezo-ear)" transform="rotate(-24 22 28)"/>
    <ellipse class="boop-ear" cx="78" cy="28" rx="7.5" ry="10" fill="url(#bg-boop-mezo-ear)" transform="rotate(24 78 28)"/>
    <!-- lábak -->
    <ellipse cx="37" cy="85.5" rx="9" ry="5" fill="url(#bg-boop-mezo-foot)"/>
    <ellipse cx="63" cy="85.5" rx="9" ry="5" fill="url(#bg-boop-mezo-foot)"/>
    <!-- törzs -->
    <g class="boop-body">
      <ellipse cx="50" cy="52" rx="32" ry="33.5" fill="url(#bg-boop-mezo-body)"/>
      <!-- egyetlen fehér csúcsfény, bal felül, ~-22 fokkal döntve -->
      <ellipse cx="37.5" cy="33" rx="10" ry="6.2" fill="rgba(255,255,255,0.55)" transform="rotate(-22 37.5 33)"/>
      <!-- szemek: fehér mandula + pupilla + csillanás; a szemcsoport együtt pislog -->
      <!-- szemöldök: apró ív a szem fölött, a mozdulat (felhúzás) fogója a `.boop-brow` -->
      <path class="boop-brow boop-brow-l" d="M33.6 39.6 Q38.4 36.4 43.2 38.8" fill="none" stroke="#5D4FA0" stroke-opacity="0.65" stroke-width="2.2" stroke-linecap="round"/>
      <path class="boop-brow boop-brow-r" d="M56.8 38.8 Q61.6 36.4 66.4 39.6" fill="none" stroke="#5D4FA0" stroke-opacity="0.65" stroke-width="2.2" stroke-linecap="round"/>
      <g class="boop-eye boop-eye-l">
        <ellipse cx="38.4" cy="50" rx="6.6" ry="8.4" fill="#FFF9F0"/>
        <!-- A pupilla + csillanás együtt nézelődik; a külső szemcsoport pislog. -->
        <g class="boop-pupil">
          <circle cx="38.4" cy="51.4" r="3.4" fill="#3A2A22"/>
          <circle cx="37.0" cy="49.3" r="1.25" fill="#FFFFFF" opacity="0.9"/>
        </g>
      </g>
      <g class="boop-eye boop-eye-r">
        <ellipse cx="61.6" cy="50" rx="6.6" ry="8.4" fill="#FFF9F0"/>
        <g class="boop-pupil">
          <circle cx="61.6" cy="51.4" r="3.4" fill="#3A2A22"/>
          <circle cx="60.2" cy="49.3" r="1.25" fill="#FFFFFF" opacity="0.9"/>
        </g>
      </g>
    </g>
  </symbol>
  <symbol id="boop-en" viewBox="0 0 100 100">
    <title>Boop — Én · rózsa</title>
    <!-- talaj-árnyék: a figura ÜL valamin, nem lebeg (agyag-recept: nincs drop-shadow szűrő) -->
    <ellipse cx="50" cy="90" rx="25" ry="4.6" fill="#8E3F6F" opacity="0.16"/>
    <!-- fülek: a FEJ felső harmadán, kifelé döntve (owner 2026-09-18: lejjebb kézre hasonlítottak) -->
    <ellipse class="boop-ear" cx="22" cy="28" rx="7.5" ry="10" fill="url(#bg-boop-en-ear)" transform="rotate(-24 22 28)"/>
    <ellipse class="boop-ear" cx="78" cy="28" rx="7.5" ry="10" fill="url(#bg-boop-en-ear)" transform="rotate(24 78 28)"/>
    <!-- lábak -->
    <ellipse cx="37" cy="85.5" rx="9" ry="5" fill="url(#bg-boop-en-foot)"/>
    <ellipse cx="63" cy="85.5" rx="9" ry="5" fill="url(#bg-boop-en-foot)"/>
    <!-- törzs -->
    <g class="boop-body">
      <ellipse cx="50" cy="52" rx="32" ry="33.5" fill="url(#bg-boop-en-body)"/>
      <!-- egyetlen fehér csúcsfény, bal felül, ~-22 fokkal döntve -->
      <ellipse cx="37.5" cy="33" rx="10" ry="6.2" fill="rgba(255,255,255,0.55)" transform="rotate(-22 37.5 33)"/>
      <!-- szemek: fehér mandula + pupilla + csillanás; a szemcsoport együtt pislog -->
      <!-- szemöldök: apró ív a szem fölött, a mozdulat (felhúzás) fogója a `.boop-brow` -->
      <path class="boop-brow boop-brow-l" d="M33.6 39.6 Q38.4 36.4 43.2 38.8" fill="none" stroke="#8E3F6F" stroke-opacity="0.65" stroke-width="2.2" stroke-linecap="round"/>
      <path class="boop-brow boop-brow-r" d="M56.8 38.8 Q61.6 36.4 66.4 39.6" fill="none" stroke="#8E3F6F" stroke-opacity="0.65" stroke-width="2.2" stroke-linecap="round"/>
      <g class="boop-eye boop-eye-l">
        <ellipse cx="38.4" cy="50" rx="6.6" ry="8.4" fill="#FFF9F0"/>
        <!-- A pupilla + csillanás együtt nézelődik; a külső szemcsoport pislog. -->
        <g class="boop-pupil">
          <circle cx="38.4" cy="51.4" r="3.4" fill="#3A2A22"/>
          <circle cx="37.0" cy="49.3" r="1.25" fill="#FFFFFF" opacity="0.9"/>
        </g>
      </g>
      <g class="boop-eye boop-eye-r">
        <ellipse cx="61.6" cy="50" rx="6.6" ry="8.4" fill="#FFF9F0"/>
        <g class="boop-pupil">
          <circle cx="61.6" cy="51.4" r="3.4" fill="#3A2A22"/>
          <circle cx="60.2" cy="49.3" r="1.25" fill="#FFFFFF" opacity="0.9"/>
        </g>
      </g>
    </g>
  </symbol>
  <symbol id="boop-gold" viewBox="0 0 100 100">
    <title>Boop — Mezo · arany (a csapat hangja, csak karakter-figura)</title>
    <!-- talaj-árnyék: a figura ÜL valamin, nem lebeg (agyag-recept: nincs drop-shadow szűrő) -->
    <ellipse cx="50" cy="90" rx="25" ry="4.6" fill="#B57E14" opacity="0.16"/>
    <!-- fülek: a FEJ felső harmadán, kifelé döntve (owner 2026-09-18: lejjebb kézre hasonlítottak) -->
    <ellipse class="boop-ear" cx="22" cy="28" rx="7.5" ry="10" fill="url(#bg-boop-gold-ear)" transform="rotate(-24 22 28)"/>
    <ellipse class="boop-ear" cx="78" cy="28" rx="7.5" ry="10" fill="url(#bg-boop-gold-ear)" transform="rotate(24 78 28)"/>
    <!-- lábak -->
    <ellipse cx="37" cy="85.5" rx="9" ry="5" fill="url(#bg-boop-gold-foot)"/>
    <ellipse cx="63" cy="85.5" rx="9" ry="5" fill="url(#bg-boop-gold-foot)"/>
    <!-- törzs -->
    <g class="boop-body">
      <ellipse cx="50" cy="52" rx="32" ry="33.5" fill="url(#bg-boop-gold-body)"/>
      <!-- egyetlen fehér csúcsfény, bal felül, ~-22 fokkal döntve -->
      <ellipse cx="37.5" cy="33" rx="10" ry="6.2" fill="rgba(255,255,255,0.55)" transform="rotate(-22 37.5 33)"/>
      <!-- szemek: fehér mandula + pupilla + csillanás; a szemcsoport együtt pislog -->
      <!-- szemöldök: apró ív a szem fölött, a mozdulat (felhúzás) fogója a `.boop-brow` -->
      <path class="boop-brow boop-brow-l" d="M33.6 39.6 Q38.4 36.4 43.2 38.8" fill="none" stroke="#B57E14" stroke-opacity="0.65" stroke-width="2.2" stroke-linecap="round"/>
      <path class="boop-brow boop-brow-r" d="M56.8 38.8 Q61.6 36.4 66.4 39.6" fill="none" stroke="#B57E14" stroke-opacity="0.65" stroke-width="2.2" stroke-linecap="round"/>
      <g class="boop-eye boop-eye-l">
        <ellipse cx="38.4" cy="50" rx="6.6" ry="8.4" fill="#FFF9F0"/>
        <!-- A pupilla + csillanás együtt nézelődik; a külső szemcsoport pislog. -->
        <g class="boop-pupil">
          <circle cx="38.4" cy="51.4" r="3.4" fill="#3A2A22"/>
          <circle cx="37.0" cy="49.3" r="1.25" fill="#FFFFFF" opacity="0.9"/>
        </g>
      </g>
      <g class="boop-eye boop-eye-r">
        <ellipse cx="61.6" cy="50" rx="6.6" ry="8.4" fill="#FFF9F0"/>
        <g class="boop-pupil">
          <circle cx="61.6" cy="51.4" r="3.4" fill="#3A2A22"/>
          <circle cx="60.2" cy="49.3" r="1.25" fill="#FFFFFF" opacity="0.9"/>
        </g>
      </g>
    </g>
  </symbol>
  <symbol id="boop-slate" viewBox="0 0 100 100">
    <title>Boop — Szkeptikus · palaszürke (csak beszélgetésben, félig lehunyt szem)</title>
    <!-- talaj-árnyék: a figura ÜL valamin, nem lebeg (agyag-recept: nincs drop-shadow szűrő) -->
    <ellipse cx="50" cy="90" rx="25" ry="4.6" fill="#565073" opacity="0.16"/>
    <!-- fülek: a FEJ felső harmadán, kifelé döntve (owner 2026-09-18: lejjebb kézre hasonlítottak) -->
    <ellipse class="boop-ear" cx="22" cy="28" rx="7.5" ry="10" fill="url(#bg-boop-slate-ear)" transform="rotate(-24 22 28)"/>
    <ellipse class="boop-ear" cx="78" cy="28" rx="7.5" ry="10" fill="url(#bg-boop-slate-ear)" transform="rotate(24 78 28)"/>
    <!-- lábak -->
    <ellipse cx="37" cy="85.5" rx="9" ry="5" fill="url(#bg-boop-slate-foot)"/>
    <ellipse cx="63" cy="85.5" rx="9" ry="5" fill="url(#bg-boop-slate-foot)"/>
    <!-- törzs -->
    <g class="boop-body">
      <ellipse cx="50" cy="52" rx="32" ry="33.5" fill="url(#bg-boop-slate-body)"/>
      <!-- egyetlen fehér csúcsfény, bal felül, ~-22 fokkal döntve -->
      <ellipse cx="37.5" cy="33" rx="10" ry="6.2" fill="rgba(255,255,255,0.55)" transform="rotate(-22 37.5 33)"/>
      <!-- szemek: fehér mandula + pupilla + csillanás; a szemcsoport együtt pislog -->
      <!-- szemöldök: apró ív a szem fölött, a mozdulat (felhúzás) fogója a `.boop-brow` -->
      <path class="boop-brow boop-brow-l" d="M33.6 39.6 Q38.4 36.4 43.2 38.8" fill="none" stroke="#565073" stroke-opacity="0.65" stroke-width="2.2" stroke-linecap="round"/>
      <path class="boop-brow boop-brow-r" d="M56.8 38.8 Q61.6 36.4 66.4 39.6" fill="none" stroke="#565073" stroke-opacity="0.65" stroke-width="2.2" stroke-linecap="round"/>
      <g class="boop-eye boop-eye-l">
        <ellipse cx="38.4" cy="50" rx="6.6" ry="6.4" fill="#FFF9F0"/>
        <!-- A pupilla + csillanás együtt nézelődik; a külső szemcsoport pislog. -->
        <g class="boop-pupil">
          <circle cx="38.4" cy="51.4" r="3.4" fill="#3A2A22"/>
          <circle cx="37.0" cy="49.3" r="1.25" fill="#FFFFFF" opacity="0.9"/>
        </g>
      </g>
      <g class="boop-eye boop-eye-r">
        <ellipse cx="61.6" cy="50" rx="6.6" ry="6.4" fill="#FFF9F0"/>
        <g class="boop-pupil">
          <circle cx="61.6" cy="51.4" r="3.4" fill="#3A2A22"/>
          <circle cx="60.2" cy="49.3" r="1.25" fill="#FFFFFF" opacity="0.9"/>
        </g>
      </g>
    </g>
  </symbol>
</svg>
